<?xml version="1.0" encoding="utf-8"?>
<!-- Generator: Adobe Illustrator 24.3.2, SVG Export Plug-In . SVG Version: 6.00 Build 0)  -->
<svg version="1.1" id="Layer_1" xmlns="http://www.w3.org/2000/svg" xmlns:xlink="http://www.w3.org/1999/xlink" x="0px" y="0px"
	 viewBox="0 0 1080 1080" style="enable-background:new 0 0 1080 1080;" xml:space="preserve">
<style type="text/css">
	.st0{fill:#1932C8;}
	.st1{fill:#002747;}
	.st2{fill:#00C85A;}
	.st3{fill:none;}
</style>
<g>
	<path class="st0" d="M536.75,863.78c-78.84,0-148.84-37.79-192.9-96.24h-18.84l19.19,25.73c2.64,3.53,66.08,86.62,192.54,86.62
		c91.29,0,151.9-45.63,179.9-72.83c9.5-9.22,24.68-10.02,35.32-1.84l26.06,20.04c-66.22,64.66-151.24,100.06-241.28,100.06v32.2
		c104.79,0,203.25-43.68,277.23-122.99l12.08-12.95l-54.47-41.88c-12.33-9.48-27.48-13.36-42.12-11.92
		C685.41,826.09,615.49,863.78,536.75,863.78z"/>
	<path class="st0" d="M134.31,686.71l-0.03,32.2l181.22,0.15c-4.54-10.38-8.38-21.13-11.44-32.21L134.31,686.71z"/>
	<path class="st1" d="M536.75,847.69c-67.42,0-114.08-26.68-140.57-47.95h60.33c53.26,0,96.59-43.33,96.59-96.59v-16.08
		l-249.05-0.21c3.06,11.08,6.9,21.83,11.44,32.21l203.38,0.17c-7.16,27.75-32.4,48.31-62.36,48.31H343.85
		c44.06,58.45,114.06,96.24,192.9,96.24c78.73,0,148.65-37.69,192.72-96.01c-12.93,1.27-25.46,6.67-35.26,16.19
		C664.29,813.03,612.67,847.69,536.75,847.69z"/>
	<path class="st2" d="M285.67,477.6l163.87-0.25l71.11,71.11v73.9H295.33c0,22.34,3.05,43.96,8.73,64.49l249.05,0.21v16.08
		c0,53.26-43.33,96.59-96.59,96.59h-60.33c26.48,21.27,73.14,47.95,140.57,47.95c75.92,0,127.53-34.65,157.46-63.73
		c9.8-9.52,22.33-14.92,35.26-16.19c30.56-40.45,48.7-90.81,48.7-145.41H552.85v-73.9l19.12-19.12
		c8.1,17.59,24.95,28.46,44.49,28.47l177.86,0.09V379.97c0-20.23-11.61-37.61-30.3-45.35c-18.69-7.74-39.19-3.66-53.5,10.64
		l-53.03,53.03l-75.72,75.72l-28.92,28.92V139.34h-32.2v363.59l-48.05-48.05l-0.25-163.98L179.81,132.81
		c-14.96-8.08-33.09-5.44-45.12,6.57c-12.03,12.01-14.71,30.13-6.65,45.1L285.67,477.6z M604.54,496.77l52.95-52.95l47.63,47.63
		l22.77-22.77l-47.63-47.63l53.03-53.03c7.41-7.41,15.96-4.68,18.41-3.66c2.45,1.01,10.43,5.13,10.43,15.61v145.71l-145.65-0.07
		c-10.47-0.01-14.59-7.99-15.6-10.43C599.86,512.73,597.14,504.18,604.54,496.77z M157.44,162.17c1.16-1.15,2.67-1.76,4.21-1.76
		c0.97,0,1.95,0.24,2.85,0.73l275.67,148.98l0.17,112.51L299.14,281.41l-22.77,22.77L417.39,445.2l-112.5,0.17L156.4,169.23
		C155.16,166.92,155.58,164.02,157.44,162.17z"/>
	<path class="st2" d="M518.87,719.23l-203.38-0.17c7.58,17.32,17.12,33.57,28.36,48.48h112.66
		C486.47,767.54,511.71,746.98,518.87,719.23z"/>
	<rect class="st3" width="1080" height="1080"/>
	<rect class="st3" width="1080" height="1080"/>
</g>
</svg>
