<?xml version="1.0" encoding="utf-8"?>
<!-- Generator: Adobe Illustrator 24.3.2, SVG Export Plug-In . SVG Version: 6.00 Build 0)  -->
<svg version="1.1" id="Layer_1" xmlns="http://www.w3.org/2000/svg" xmlns:xlink="http://www.w3.org/1999/xlink" x="0px" y="0px"
	 viewBox="0 0 85 85" style="enable-background:new 0 0 85 85;" xml:space="preserve">
<style type="text/css">
	.st0{fill:url(#SVGID_1_);}
</style>
<g>
	<g>
		<g id="Layer_1-2_35_">
			
				<radialGradient id="SVGID_1_" cx="-0.224" cy="45.7777" r="83.0715" gradientTransform="matrix(1 0 0 -1 0 88)" gradientUnits="userSpaceOnUse">
				<stop  offset="0" style="stop-color:#A4E03D"/>
				<stop  offset="0.5" style="stop-color:#00CC66"/>
				<stop  offset="1" style="stop-color:#008461"/>
			</radialGradient>
			<path class="st0" d="M46.1,34.7c1-4.2,1.5-8.6,1.4-12.9l0-0.1c7.5-0.8,16-1.7,20.9-5.1h0c0.7,4.3,1.4,11.3-7.1,23.2
				c-8.6,12.1-22.1,18.6-33.2,22.1v0c2.7-2.1,5.1-4.5,7.4-7C40.7,48.8,44.3,42.1,46.1,34.7z M43.1,22.2L43.1,22.2
				c-10.4,1-17.7,4.4-22.3,10.1c-5.1,6.4-6.8,15.9-5.3,29.1c0.1,1.2,0.3,2.2,0.4,2.9l0.1,0C21.5,61.6,43.2,49.2,43.1,22.2z
				 M71.6,30.2c-1.6,4.4-3.8,8.5-6.6,12.3c-8.8,12.1-21.8,18.8-31.2,22.2c-3.1,1.1-5.9,2-8.4,2.7v0c7.4,0.4,14.2-0.3,20.2-2.1
				c6.8-2,12.4-5.3,16.8-9.8C68.8,48.9,72,40,71.6,30.2L71.6,30.2z"/>
		</g>
	</g>
</g>
</svg>
